<svg width="179" height="179" viewBox="0 0 179 179" fill="none" xmlns="http://www.w3.org/2000/svg">
<path d="M103.676 154.475C103.676 158.617 101.997 162.368 99.2821 165.083C96.5674 167.797 92.8169 169.476 88.6744 169.476C84.5319 169.476 80.7814 167.797 78.0667 165.083C75.352 162.368 73.6729 158.617 73.6729 154.475C73.6729 150.332 75.352 146.582 78.0667 143.867C80.7814 141.153 84.5319 139.473 88.6744 139.473C92.8169 139.473 96.5674 141.153 99.2821 143.867C101.997 146.582 103.676 150.332 103.676 154.475Z" fill="#D1D8EC"/>
<path d="M88.6737 171.541C83.9684 171.541 79.702 169.628 76.6117 166.537C73.5214 163.447 71.6074 159.18 71.6074 154.475C71.6074 149.77 73.5214 145.503 76.6117 142.413C79.702 139.322 83.9686 137.408 88.6737 137.408C93.379 137.408 97.6458 139.322 100.736 142.413C103.827 145.503 105.741 149.77 105.741 154.475C105.741 159.18 103.827 163.447 100.736 166.537C97.6458 169.628 93.379 171.541 88.6737 171.541ZM88.6737 141.538C85.1072 141.538 81.8732 142.989 79.5309 145.332C77.1885 147.674 75.7378 150.909 75.7378 154.475C75.7378 158.042 77.1885 161.276 79.5309 163.618C81.8732 165.96 85.1072 167.411 88.6737 167.411C92.2403 167.411 95.4744 165.96 97.817 163.618C100.16 161.276 101.611 158.042 101.611 154.475C101.611 150.909 100.16 147.674 97.817 145.332C95.4744 142.989 92.2403 141.538 88.6737 141.538Z" fill="#727A93"/>
<g opacity="0.35">
<path d="M103.676 154.475C103.676 158.617 101.997 162.368 99.2821 165.083C96.5674 167.797 92.8169 169.476 88.6744 169.476C84.5319 169.476 80.7814 167.797 78.0667 165.083C75.352 162.368 73.6729 158.617 73.6729 154.475C73.6729 150.332 75.352 146.582 78.0667 143.867C80.7814 141.153 84.5319 139.473 88.6744 139.473C92.8169 139.473 96.5674 141.153 99.2821 143.867C101.997 146.582 103.676 150.332 103.676 154.475Z" fill="#727A93"/>
<path d="M88.6737 171.541C83.9684 171.541 79.702 169.628 76.6117 166.537C73.5214 163.447 71.6074 159.18 71.6074 154.475C71.6074 149.77 73.5214 145.503 76.6117 142.413C79.702 139.322 83.9686 137.408 88.6737 137.408C93.379 137.408 97.6458 139.322 100.736 142.413C103.827 145.503 105.741 149.77 105.741 154.475C105.741 159.18 103.827 163.447 100.736 166.537C97.6458 169.628 93.379 171.541 88.6737 171.541ZM88.6737 141.538C85.1072 141.538 81.8732 142.989 79.5309 145.332C77.1885 147.674 75.7378 150.909 75.7378 154.475C75.7378 158.042 77.1885 161.276 79.5309 163.618C81.8732 165.96 85.1072 167.411 88.6737 167.411C92.2403 167.411 95.4744 165.96 97.817 163.618C100.16 161.276 101.611 158.042 101.611 154.475C101.611 150.909 100.16 147.674 97.817 145.332C95.4744 142.989 92.2403 141.538 88.6737 141.538Z" fill="#727A93"/>
</g>
<path d="M129.1 79.512C129.1 67.8341 124.148 57.3126 116.231 49.9324C108.313 42.5522 97.4281 38.3134 85.5617 39.2008C75.5225 39.9515 66.4855 44.4317 59.8202 51.2373C53.1548 58.0429 48.8608 67.1738 48.3072 77.2259C47.9689 83.3687 49.0034 89.2331 51.1314 94.5409C53.2594 99.8486 56.4811 104.6 60.5175 108.517C64.1019 111.995 66.8498 116.162 68.7016 120.709C70.5533 125.255 71.5093 130.181 71.5093 135.175V135.589V136.004H88.6721H105.835V135.588V135.173C105.835 130.058 106.902 125.084 108.871 120.483C110.841 115.881 113.712 111.653 117.321 108.029C120.961 104.374 123.905 100.028 125.94 95.2036C127.975 90.3791 129.1 85.0773 129.1 79.512Z" fill="#FDE9A4"/>
<path d="M105.835 138.069H88.6726H71.5098C70.9394 138.069 70.4231 137.838 70.0494 137.464C69.6758 137.09 69.4446 136.574 69.4446 136.003V135.589V135.175C69.4446 130.371 68.5 125.675 66.7323 121.381C64.9645 117.087 62.3732 113.194 59.0797 109.999C54.6624 105.712 51.2843 100.573 49.0952 94.9637C46.9062 89.3546 45.9062 83.276 46.2454 77.1123C46.8291 66.5098 51.3301 56.9126 58.33 49.7681C65.3299 42.6236 74.8287 37.9322 85.4082 37.1412C91.3982 36.6919 97.2488 37.4638 102.697 39.3643C108.145 41.2647 113.19 44.2937 117.57 48.358C121.89 52.367 125.289 57.2103 127.608 62.524C129.926 67.8376 131.165 73.6217 131.165 79.5124C131.165 85.1683 130.066 90.6575 127.969 95.7349C125.872 100.812 122.777 105.477 118.785 109.486C115.275 113.009 112.554 117.052 110.711 121.403C108.867 125.754 107.901 130.414 107.901 135.173V135.588V136.004C107.901 136.574 107.67 137.09 107.296 137.464C106.922 137.838 106.406 138.069 105.835 138.069ZM73.5565 133.938H88.673H103.79C103.949 128.854 105.093 123.893 107.134 119.262C109.175 114.632 112.112 110.332 115.858 106.571C119.462 102.952 122.256 98.7403 124.149 94.1568C126.042 89.5732 127.035 84.6179 127.035 79.5121C127.035 74.1942 125.916 68.9721 123.823 64.1748C121.729 59.3774 118.66 55.0048 114.76 51.3854C110.806 47.7163 106.251 44.9818 101.331 43.2661C96.4108 41.5504 91.1267 40.8536 85.7164 41.2601C76.1679 41.974 67.5946 46.2088 61.2766 52.6576C54.9587 59.1064 50.8963 67.7693 50.3694 77.3395C50.0633 82.9055 50.9659 88.3944 52.9423 93.459C54.9186 98.5238 57.9684 103.165 61.9564 107.034C65.506 110.479 68.3279 114.638 70.3015 119.22C72.2751 123.801 73.4003 128.805 73.5565 133.938Z" fill="#727A93"/>
<path d="M105.431 140.894H88.6734H71.916C70.8562 140.894 69.8968 140.465 69.2022 139.77C68.5077 139.076 68.0781 138.116 68.0781 137.056V136.736V136.416C68.0781 135.356 68.5077 134.397 69.2022 133.702C69.8968 133.008 70.8562 132.578 71.916 132.578H88.6736H105.431C106.491 132.578 107.45 133.008 108.145 133.702C108.839 134.397 109.269 135.356 109.269 136.416V136.736V137.056C109.269 138.116 108.839 139.076 108.145 139.77C107.45 140.465 106.491 140.894 105.431 140.894Z" fill="#D1D8EC"/>
<path d="M105.111 142.96H88.6734H72.2358C70.5199 142.96 68.9641 142.262 67.8373 141.135C66.7105 140.008 66.0127 138.452 66.0127 136.736C66.0127 135.02 66.7105 133.464 67.8373 132.337C68.9641 131.21 70.5199 130.513 72.2358 130.513H88.6734H105.111C106.827 130.513 108.382 131.21 109.509 132.337C110.636 133.464 111.334 135.02 111.334 136.736C111.334 138.452 110.636 140.008 109.509 141.135C108.383 142.262 106.827 142.96 105.111 142.96ZM72.2358 134.643C71.659 134.643 71.1358 134.878 70.7568 135.257C70.3778 135.636 70.1431 136.159 70.1431 136.736C70.1431 137.313 70.3779 137.836 70.7568 138.216C71.1358 138.595 71.659 138.829 72.2358 138.829H88.6734H105.111C105.688 138.829 106.211 138.595 106.59 138.216C106.969 137.836 107.203 137.313 107.203 136.736C107.203 136.159 106.969 135.636 106.59 135.257C106.211 134.878 105.688 134.643 105.111 134.643H88.6734H72.2358Z" fill="#727A93"/>
<path d="M105.431 149.21H88.6734H71.916C70.8562 149.21 69.8968 148.78 69.2022 148.086C68.5077 147.391 68.0781 146.432 68.0781 145.372V145.052V144.732C68.0781 143.672 68.5077 142.713 69.2022 142.018C69.8968 141.324 70.8562 140.894 71.916 140.894H88.6736H105.431C106.491 140.894 107.45 141.324 108.145 142.018C108.839 142.713 109.269 143.672 109.269 144.732V145.052V145.372C109.269 146.432 108.839 147.391 108.145 148.086C107.45 148.78 106.491 149.21 105.431 149.21Z" fill="#D1D8EC"/>
<path d="M105.111 151.276H88.6734H72.2358C70.5199 151.276 68.9641 150.578 67.8373 149.451C66.7105 148.324 66.0127 146.768 66.0127 145.052C66.0127 143.337 66.7105 141.781 67.8373 140.654C68.9641 139.527 70.5199 138.829 72.2358 138.829H88.6734H105.111C106.827 138.829 108.382 139.527 109.509 140.654C110.636 141.781 111.334 143.337 111.334 145.052C111.334 146.768 110.636 148.324 109.509 149.451C108.383 150.578 106.827 151.276 105.111 151.276ZM72.2358 142.96C71.659 142.96 71.1358 143.195 70.7568 143.573C70.3778 143.952 70.1431 144.476 70.1431 145.052C70.1431 145.629 70.3779 146.152 70.7568 146.531C71.1357 146.91 71.659 147.145 72.2358 147.145H88.6734H105.111C105.688 147.145 106.211 146.91 106.59 146.531C106.969 146.153 107.203 145.629 107.203 145.052C107.203 144.476 106.969 143.952 106.59 143.573C106.211 143.194 105.688 142.96 105.111 142.96H88.6734H72.2358Z" fill="#727A93"/>
<path d="M105.431 157.526H88.6734H71.916C70.8562 157.526 69.8968 157.096 69.2022 156.402C68.5077 155.707 68.0781 154.748 68.0781 153.688V153.368V153.048C68.0781 151.988 68.5077 151.029 69.2022 150.334C69.8968 149.64 70.8562 149.21 71.916 149.21H88.6736H105.431C106.491 149.21 107.45 149.64 108.145 150.334C108.839 151.029 109.269 151.988 109.269 153.048V153.368V153.688C109.269 154.748 108.839 155.707 108.145 156.402C107.45 157.096 106.491 157.526 105.431 157.526Z" fill="#D1D8EC"/>
<path d="M105.111 159.591H88.6734H72.2358C70.5199 159.591 68.9641 158.894 67.8373 157.767C66.7105 156.64 66.0127 155.084 66.0127 153.368C66.0127 151.652 66.7105 150.097 67.8373 148.97C68.9641 147.843 70.5199 147.145 72.2358 147.145H88.6734H105.111C106.827 147.145 108.382 147.843 109.509 148.97C110.636 150.097 111.334 151.652 111.334 153.368C111.334 155.084 110.636 156.64 109.509 157.767C108.383 158.893 106.827 159.591 105.111 159.591ZM72.2358 151.276C71.659 151.276 71.1358 151.51 70.7568 151.889C70.3778 152.268 70.1431 152.791 70.1431 153.368C70.1431 153.945 70.3779 154.468 70.7568 154.847C71.1357 155.226 71.659 155.461 72.2358 155.461H88.6734H105.111C105.688 155.461 106.211 155.226 106.59 154.847C106.969 154.468 107.203 153.945 107.203 153.368C107.203 152.791 106.969 152.268 106.59 151.889C106.211 151.51 105.688 151.276 105.111 151.276H88.6734H72.2358Z" fill="#727A93"/>
<g opacity="0.35">
<path d="M81.045 115.372C76.0869 106.982 70.5567 98.9724 66.0753 90.6771C61.5939 82.3818 58.1614 73.8004 57.3985 64.2655C57.2816 62.5106 57.2549 60.684 57.3399 58.8381C57.4249 56.9921 57.6218 55.1265 57.9518 53.2937C55.1573 56.5637 52.8713 60.278 51.2216 64.3091C49.5718 68.3401 48.558 72.6881 48.3082 77.2253C47.9699 83.3681 49.0043 89.2324 51.1324 94.5402C53.2604 99.848 56.4821 104.599 60.5185 108.516C63.8009 111.701 66.3794 115.465 68.2106 119.568C70.0418 123.671 71.1258 128.115 71.4192 132.659C70.4666 132.849 69.6311 133.364 69.034 134.084C68.4367 134.803 68.0777 135.728 68.0777 136.736C68.0777 137.884 68.5431 138.924 69.2955 139.676C70.0479 140.428 71.0874 140.894 72.2356 140.894C71.0874 140.894 70.0479 141.359 69.2955 142.112C68.5431 142.864 68.0777 143.904 68.0777 145.052C68.0777 146.2 68.5431 147.239 69.2955 147.992C70.0479 148.744 71.0874 149.21 72.2356 149.21C71.0874 149.21 70.0479 149.675 69.2955 150.427C68.5431 151.18 68.0777 152.219 68.0777 153.368C68.0777 154.516 68.5431 155.555 69.2955 156.308C70.0479 157.06 71.0874 157.526 72.2356 157.526H80.1271H88.0186C88.041 150.18 88.2901 142.915 87.5374 135.85C86.7847 128.785 85.03 121.919 81.045 115.372Z" fill="#727A93"/>
<path d="M88.018 159.591H80.1265H72.2352C70.5193 159.591 68.9635 158.893 67.8367 157.766C66.7099 156.64 66.0121 155.084 66.0121 153.368C66.0121 152.57 66.1632 151.806 66.4383 151.104C66.7133 150.402 67.1125 149.762 67.6086 149.21C67.1125 148.659 66.7133 148.018 66.4383 147.316C66.1632 146.614 66.0121 145.85 66.0121 145.052C66.0121 144.254 66.1633 143.49 66.4385 142.788C66.7138 142.086 67.1129 141.446 67.6086 140.894C67.1129 140.343 66.7138 139.703 66.4385 139C66.1633 138.298 66.0121 137.534 66.0121 136.736C66.0121 135.582 66.3319 134.488 66.8941 133.548C67.4563 132.609 68.2608 131.823 69.2301 131.287C68.7969 127.171 67.6874 123.235 65.9721 119.634C64.2568 116.034 61.936 112.77 59.0797 109.998C54.6624 105.712 51.2843 100.572 49.0952 94.963C46.9062 89.3538 45.9062 83.2753 46.2454 77.1116C46.5015 72.4616 47.5059 67.9614 49.211 63.7289C50.9161 59.4965 53.322 55.5315 56.3811 51.9521C56.6836 51.5975 57.0867 51.3665 57.5193 51.274C57.9519 51.1815 58.4141 51.2277 58.8352 51.4278C59.2568 51.6275 59.5851 51.956 59.7874 52.3493C59.9896 52.7427 60.0658 53.2009 59.9832 53.6599C59.6916 55.2818 59.5002 56.9978 59.4118 58.7587C59.3233 60.5198 59.3378 62.3257 59.458 64.128C60.0477 71.499 62.2937 78.284 65.4248 84.8671C68.556 91.4499 72.5726 97.8308 76.7035 104.394C77.7179 106.005 78.7496 107.644 79.7758 109.301C80.8021 110.957 81.823 112.63 82.8162 114.311C86.5811 120.5 88.4338 126.998 89.3307 133.594C90.2276 140.19 90.1687 146.885 90.1106 153.467C90.1049 154.143 90.0991 154.82 90.0941 155.497C90.0892 156.175 90.0852 156.853 90.0831 157.532C90.0815 158.101 89.8498 158.616 89.4762 158.988C89.1025 159.361 88.5871 159.591 88.018 159.591ZM72.2352 151.275C71.6583 151.275 71.1352 151.51 70.7562 151.889C70.3771 152.268 70.1425 152.791 70.1425 153.368C70.1425 153.945 70.3773 154.468 70.7562 154.847C71.1351 155.226 71.6583 155.46 72.2352 155.46H79.0997H85.9642C85.9666 155.122 85.9692 154.783 85.9721 154.445C85.9749 154.107 85.9779 153.769 85.9812 153.431C86.0389 146.846 86.095 140.444 85.271 134.266C84.447 128.088 82.7431 122.134 79.2805 116.446C79.2781 116.442 79.2758 116.439 79.2736 116.435C79.2714 116.431 79.2691 116.427 79.2667 116.423C78.2873 114.766 77.2766 113.109 76.2585 111.467C75.2404 109.824 74.2154 108.196 73.2073 106.595C69.1256 100.109 64.9742 93.5136 61.6854 86.5665C58.3965 79.6194 55.9703 72.3209 55.3391 64.4299C55.2979 63.8147 55.2681 63.1995 55.2494 62.5857C55.2308 61.9719 55.2233 61.3594 55.2269 60.7495C53.7897 63.2838 52.6566 65.9579 51.8423 68.7351C51.028 71.5123 50.5322 74.3926 50.3696 77.3391C50.0635 82.9051 50.9661 88.3939 52.9424 93.4586C54.9187 98.5234 57.9686 103.164 61.9565 107.034C65.3546 110.331 68.0764 114.243 70.0282 118.562C71.9801 122.88 73.1619 127.604 73.4798 132.526C73.5129 133.043 73.3524 133.532 73.0566 133.917C72.7608 134.302 72.3299 134.583 71.822 134.685C71.3351 134.781 70.9152 135.045 70.617 135.409C70.3188 135.774 70.1424 136.238 70.1424 136.735C70.1424 137.313 70.3771 137.836 70.756 138.215C71.1351 138.594 71.6582 138.829 72.235 138.829C72.8054 138.829 73.3217 139.06 73.6954 139.434C74.069 139.807 74.3002 140.324 74.3002 140.894C74.3002 141.464 74.0692 141.981 73.6954 142.354C73.3215 142.728 72.8053 142.959 72.235 142.959C71.6582 142.959 71.1351 143.194 70.756 143.573C70.377 143.952 70.1424 144.475 70.1424 145.052C70.1424 145.629 70.3771 146.152 70.756 146.531C71.1349 146.91 71.6582 147.144 72.235 147.144C72.8054 147.144 73.3217 147.375 73.6954 147.749C74.069 148.123 74.3002 148.639 74.3002 149.21C74.3002 149.78 74.0692 150.296 73.6954 150.67C73.3215 151.044 72.8054 151.275 72.2352 151.275Z" fill="#727A93"/>
</g>
<path d="M119.733 76.9698C117.275 79.811 113.253 80.8286 108.737 80.177C104.221 79.5256 99.2102 77.205 94.7759 73.3696C90.3417 69.5343 87.3231 64.9106 86.0276 60.5353C84.7321 56.1601 85.1593 52.0334 87.6167 49.1923C90.074 46.3511 94.096 45.3335 98.6123 45.985C103.129 46.6364 108.139 48.957 112.573 52.7924C117.008 56.6276 120.026 61.2515 121.322 65.6267C122.617 70.0019 122.19 74.1286 119.733 76.9698Z" fill="white"/>
<path d="M88.6726 134.643C88.1022 134.643 87.586 134.412 87.2123 134.038C86.8386 133.665 86.6074 133.148 86.6074 132.578V115.204V97.8289C86.6074 97.2585 86.8385 96.7422 87.2123 96.3685C87.5861 95.9949 88.1024 95.7637 88.6726 95.7637C89.243 95.7637 89.7593 95.9947 90.133 96.3685C90.5066 96.7424 90.7378 97.2586 90.7378 97.8289V115.203V132.578C90.7378 133.148 90.5068 133.665 90.133 134.038C89.7592 134.412 89.243 134.643 88.6726 134.643Z" fill="#727A93"/>
<path d="M88.0761 99.8942C84.4442 99.8942 81.4841 98.2795 79.408 96.6305C77.3321 94.9814 76.1401 93.2979 76.0445 93.1604C75.719 92.6922 75.6141 92.1362 75.7075 91.6161C75.801 91.0958 76.0928 90.6111 76.5607 90.2852C77.0294 89.9605 77.5852 89.8555 78.1054 89.9485C78.6255 90.0418 79.11 90.3331 79.4359 90.8015C79.4513 90.8237 80.3411 92.0642 81.8621 93.2993C83.3832 94.5344 85.5355 95.7638 88.076 95.7638C90.6103 95.7638 92.7411 94.538 94.2425 93.306C95.7439 92.074 96.616 90.8359 96.6329 90.8113C96.9576 90.3429 97.4412 90.0498 97.9606 89.9541C98.48 89.8583 99.0352 89.9602 99.5032 90.2821C99.9718 90.6044 100.267 91.0852 100.364 91.603C100.462 92.1207 100.362 92.6753 100.041 93.1452C99.9469 93.2832 98.7746 94.9704 96.7163 96.6232C94.6579 98.2759 91.714 99.8942 88.0761 99.8942Z" fill="#727A93"/>
<path d="M137.903 128.445C137.639 128.445 137.375 128.395 137.126 128.294C136.878 128.193 136.645 128.042 136.443 127.84L132.605 124.003L128.767 120.165C128.364 119.762 128.162 119.234 128.162 118.705C128.162 118.177 128.364 117.648 128.767 117.245C129.17 116.841 129.699 116.64 130.227 116.64C130.756 116.64 131.284 116.841 131.688 117.245L135.526 121.082L139.364 124.92C139.767 125.323 139.969 125.851 139.969 126.38C139.969 126.908 139.767 127.437 139.364 127.84C139.162 128.042 138.929 128.193 138.68 128.294C138.432 128.395 138.168 128.445 137.903 128.445Z" fill="#727A93"/>
<path d="M48.7707 39.313C48.5065 39.313 48.2424 39.2626 47.9937 39.1617C47.7452 39.0609 47.5122 38.9096 47.3105 38.708L43.4729 34.8703L39.6353 31.0327C39.2319 30.6294 39.0303 30.1009 39.0303 29.5725C39.0303 29.0442 39.2319 28.5157 39.6353 28.1123C40.0386 27.709 40.5671 27.5073 41.0955 27.5073C41.6238 27.5073 42.1523 27.709 42.5557 28.1123L46.3933 31.95L50.2309 35.7876C50.6342 36.1909 50.8359 36.7194 50.8359 37.2478C50.8359 37.7761 50.6342 38.3046 50.2309 38.708C50.0292 38.9096 49.7962 39.0609 49.5477 39.1617C49.2992 39.2626 49.0349 39.313 48.7707 39.313Z" fill="#727A93"/>
<path d="M157.952 80.0418H152.525H147.097C146.527 80.0418 146.011 79.8107 145.637 79.4369C145.263 79.0631 145.032 78.5468 145.032 77.9766C145.032 77.4062 145.263 76.8899 145.637 76.5162C146.011 76.1426 146.527 75.9114 147.097 75.9114H152.525H157.952C158.522 75.9114 159.039 76.1424 159.412 76.5162C159.786 76.8901 160.017 77.4063 160.017 77.9766C160.017 78.547 159.786 79.0633 159.412 79.4369C159.039 79.8106 158.522 80.0418 157.952 80.0418Z" fill="#727A93"/>
<path d="M31.8993 80.0418H26.472H21.0447C20.4743 80.0418 19.958 79.8107 19.5844 79.4369C19.2107 79.0631 18.9795 78.5468 18.9795 77.9766C18.9795 77.4062 19.2106 76.8899 19.5844 76.5162C19.9582 76.1426 20.4744 75.9114 21.0447 75.9114H26.472H31.8993C32.4697 75.9114 32.9859 76.1424 33.3596 76.5162C33.7333 76.8901 33.9645 77.4063 33.9645 77.9766C33.9645 78.547 33.7334 79.0633 33.3596 79.4369C32.9858 79.8106 32.4695 80.0418 31.8993 80.0418Z" fill="#727A93"/>
<path d="M130.227 39.313C129.963 39.313 129.699 39.2626 129.45 39.1617C129.202 39.0609 128.969 38.9096 128.767 38.708C128.364 38.3046 128.162 37.776 128.162 37.2475C128.162 36.719 128.364 36.1906 128.767 35.7876L132.605 31.95L136.443 28.1123C136.847 27.709 137.375 27.5073 137.903 27.5073C138.432 27.5073 138.96 27.709 139.364 28.1123C139.767 28.5157 139.969 29.0443 139.969 29.5728C139.969 30.1013 139.767 30.6297 139.364 31.0327L135.526 34.8703L131.688 38.708C131.486 38.9096 131.253 39.0609 131.004 39.1617C130.756 39.2626 130.492 39.313 130.227 39.313Z" fill="#727A93"/>
<path d="M41.0955 128.445C40.8313 128.445 40.5671 128.395 40.3185 128.294C40.0698 128.193 39.837 128.042 39.6353 127.84C39.2319 127.437 39.0303 126.908 39.0303 126.38C39.0303 125.852 39.2319 125.323 39.6353 124.92L43.4729 121.082L47.3105 117.245C47.7139 116.841 48.2424 116.64 48.7707 116.64C49.2991 116.64 49.8276 116.841 50.2309 117.245C50.6342 117.648 50.8359 118.177 50.8359 118.705C50.8359 119.233 50.6342 119.762 50.2309 120.165L46.3933 124.003L42.5557 127.84C42.354 128.042 42.121 128.193 41.8725 128.294C41.624 128.395 41.3597 128.445 41.0955 128.445Z" fill="#727A93"/>
<path d="M89.4988 22.4427C88.9284 22.4427 88.4121 22.2117 88.0385 21.8379C87.6648 21.4641 87.4336 20.9478 87.4336 20.3775V14.9503V9.52298C87.4336 8.95256 87.6647 8.4363 88.0385 8.06263C88.4123 7.68897 88.9284 7.45776 89.4988 7.45776C90.0692 7.45776 90.5855 7.68882 90.9591 8.06263C91.3328 8.43645 91.564 8.95271 91.564 9.52298V14.9503V20.3775C91.564 20.948 91.333 21.4642 90.9591 21.8379C90.5853 22.2115 90.0692 22.4427 89.4988 22.4427Z" fill="#727A93"/>
<path d="M69.0373 26.9595C68.6226 26.9595 68.2198 26.8339 67.8812 26.6057C67.5426 26.3776 67.2682 26.047 67.11 25.6371L66.073 22.9483L65.036 20.2594C64.8311 19.7273 64.8612 19.1624 65.0754 18.6793C65.2898 18.196 65.6882 17.7946 66.2203 17.5891C66.7535 17.3851 67.3184 17.4149 67.8013 17.6288C68.2843 17.8429 68.6851 18.241 68.8905 18.7734L69.9268 21.4614L70.963 24.1493C71.1683 24.6814 71.1387 25.2463 70.9247 25.7295C70.7106 26.2128 70.3124 26.6143 69.7803 26.8196C69.6581 26.8667 69.534 26.9016 69.4097 26.9247C69.2853 26.9482 69.1606 26.9595 69.0373 26.9595Z" fill="#727A93"/>
<path d="M146.77 105.445C146.63 105.445 146.489 105.431 146.349 105.402C146.209 105.372 146.069 105.328 145.933 105.267L143.905 104.368L141.878 103.469C141.356 103.238 140.978 102.817 140.788 102.324C140.598 101.831 140.596 101.265 140.827 100.744C141.058 100.222 141.479 99.8446 141.972 99.6546C142.465 99.4645 143.031 99.4626 143.552 99.6934L145.58 100.592L147.608 101.492C148.129 101.723 148.507 102.143 148.697 102.636C148.887 103.129 148.889 103.695 148.658 104.217C148.488 104.602 148.213 104.909 147.883 105.12C147.552 105.331 147.165 105.445 146.77 105.445Z" fill="#727A93"/>
<path d="M36.5232 56.5469C36.3833 56.5469 36.2421 56.5325 36.102 56.5032C35.9618 56.4738 35.8226 56.4292 35.6867 56.3686L33.538 55.4154L31.3892 54.4623C30.868 54.2312 30.4899 53.8105 30.2999 53.3175C30.1098 52.8246 30.1077 52.2588 30.3389 51.7371C30.57 51.2159 30.9908 50.8378 31.4839 50.6478C31.9771 50.4577 32.5429 50.4556 33.0641 50.6868L35.2128 51.64L37.3616 52.5932C37.883 52.8243 38.2613 53.2451 38.4512 53.7382C38.6411 54.2313 38.6431 54.7971 38.4118 55.3183C38.2408 55.7035 37.9666 56.0108 37.636 56.2215C37.3056 56.4323 36.919 56.5469 36.5232 56.5469Z" fill="#727A93"/>
<path d="M143.324 59.2942C142.909 59.2942 142.506 59.1683 142.167 58.9401C141.828 58.7117 141.554 58.381 141.395 57.9712C141.19 57.4389 141.221 56.8738 141.435 56.3908C141.649 55.9077 142.048 55.5064 142.58 55.301L144.897 54.4075L147.214 53.514C147.747 53.3102 148.312 53.3405 148.795 53.5546C149.278 53.7686 149.68 54.1666 149.884 54.6982C150.089 55.2306 150.059 55.7956 149.845 56.2786C149.631 56.7616 149.232 57.163 148.7 57.3684L146.383 58.262L144.066 59.1555C143.943 59.2023 143.82 59.2369 143.695 59.2599C143.571 59.2829 143.447 59.2942 143.324 59.2942Z" fill="#727A93"/>
<path d="M31.0398 102.578C30.6251 102.578 30.2224 102.452 29.8838 102.224C29.5452 101.996 29.2707 101.665 29.1126 101.255C28.9073 100.723 28.9372 100.158 29.1514 99.6746C29.3656 99.1914 29.7641 98.7902 30.2961 98.5852L32.4896 97.7393L34.6831 96.8934C35.2159 96.6884 35.7808 96.7187 36.2638 96.9332C36.7468 97.1477 37.1476 97.5464 37.3526 98.0785C37.5575 98.6106 37.5274 99.1755 37.313 99.6586C37.0987 100.142 36.6999 100.543 36.1674 100.748L33.9747 101.593L31.7819 102.438C31.6598 102.485 31.5358 102.52 31.4117 102.543C31.2877 102.566 31.1633 102.578 31.0398 102.578Z" fill="#727A93"/>
<path d="M113.273 26.4421C113.133 26.4421 112.992 26.4278 112.852 26.3984C112.711 26.369 112.572 26.3244 112.436 26.2638C111.915 26.0328 111.536 25.612 111.347 25.1188C111.157 24.6257 111.155 24.0599 111.386 23.5387L112.2 21.7031L113.014 19.8674C113.246 19.3459 113.667 18.9676 114.161 18.7778C114.654 18.5877 115.22 18.5859 115.739 18.8171C116.261 19.0482 116.639 19.469 116.829 19.9621C117.019 20.4553 117.021 21.0211 116.789 21.5423L115.975 23.3779L115.161 25.2135C114.99 25.5987 114.716 25.906 114.386 26.1168C114.055 26.3275 113.668 26.4421 113.273 26.4421Z" fill="#727A93"/>
<path d="M120 177C135.464 177 148 164.464 148 149C148 133.536 135.464 121 120 121C104.536 121 92 133.536 92 149C92 164.464 104.536 177 120 177Z" fill="url(#paint0_linear_134_3458)"/>
<path d="M137.777 138.379C137.777 139.266 137.473 140.153 136.895 140.832L120.807 159.245L118.617 161.751C117.451 163.085 115.558 163.085 114.392 161.751L112.202 159.245L105.237 151.274C104.067 149.917 104.067 147.707 105.237 146.35C105.83 145.689 106.605 145.341 107.396 145.341C108.171 145.341 108.946 145.689 109.539 146.35L116.504 154.322L132.594 135.908C133.779 134.569 135.71 134.569 136.895 135.908C137.473 136.587 137.777 137.474 137.777 138.379Z" fill="#FFFAF4"/>
<defs>
<linearGradient id="paint0_linear_134_3458" x1="120" y1="121" x2="120" y2="177" gradientUnits="userSpaceOnUse">
<stop stop-color="#3FD076"/>
<stop offset="1" stop-color="#3AA462"/>
</linearGradient>
</defs>
</svg>
